# xmcd
#
# Track frame offsets:
#	150
#	19422
#	40392
#
# Disc length: 929 seconds
#
# Revision: 0
# Processed by: cddbd v1.5.2PL0 Copyright (c) Steve Scherf et al.
# Submitted via: dBpowerAMP V4.0
#
DISCID=21039f03
DTITLE=Smokie - Have You Ever Seen The Rain
DYEAR=1900
DGENRE=Country
TTITLE0=Have You Ever Seen The Rain
TTITLE1=Last Train
TTITLE2=Livin Next To Alice [The Dance Mix
EXTD=
EXTT0=
EXTT1=
EXTT2=
PLAYORDER=
